<?xml version="1.0" standalone="no"?>
<!DOCTYPE svg PUBLIC "-//W3C//DTD SVG 20010904//EN"
 "http://www.w3.org/TR/2001/REC-SVG-20010904/DTD/svg10.dtd">
<svg version="1.0" xmlns="http://www.w3.org/2000/svg"
 width="1136.000000pt" height="980.000000pt" viewBox="0 0 1136.000000 980.000000"
 preserveAspectRatio="xMidYMid meet">
<metadata>
Created by potrace 1.16, written by Peter Selinger 2001-2019
</metadata>
<g transform="translate(0.000000,980.000000) scale(0.100000,-0.100000)"
fill="#E94C42" stroke="none">
<path d="M7135 8689 c-711 -73 -1408 -511 -1840 -1159 -86 -129 -208 -370
-254 -504 -250 -717 -64 -1387 514 -1848 295 -235 667 -390 1095 -455 142 -21
489 -24 630 -4 507 70 927 264 1284 593 257 237 483 577 622 935 41 105 53
125 108 183 180 186 304 375 482 730 199 398 222 584 70 556 -20 -4 -130 -53
-244 -110 -233 -116 -325 -152 -419 -166 -88 -12 -109 -3 -118 52 -53 339
-252 604 -657 874 -378 253 -833 368 -1273 323z m393 -220 c478 -52 910 -278
1183 -617 139 -173 195 -331 163 -460 -24 -96 -8 -132 69 -153 98 -26 372 38
676 160 l54 22 -6 -38 c-14 -86 -223 -467 -357 -653 -79 -109 -106 -138 -176
-197 -56 -46 -63 -60 -130 -248 -196 -553 -534 -940 -1025 -1175 -622 -296
-1393 -289 -2008 19 -537 270 -832 729 -831 1294 1 494 211 980 595 1376 380
391 874 628 1410 674 93 8 293 6 383 -4z"/>
<path d="M7758 7356 c-126 -36 -283 -139 -393 -257 -64 -69 -111 -136 -166
-236 -18 -35 -38 -63 -44 -63 -5 0 -30 28 -55 62 -120 166 -303 321 -417 354
-137 40 -256 -2 -333 -118 -132 -198 -115 -520 42 -791 141 -244 500 -549 707
-603 91 -23 125 -13 233 63 345 244 614 534 750 808 171 344 133 669 -91 768
-57 25 -168 31 -233 13z m167 -188 c46 -21 69 -81 69 -178 -1 -105 -22 -183
-84 -316 -117 -250 -324 -486 -619 -708 -95 -71 -119 -84 -140 -79 -118 28
-247 109 -371 233 -142 142 -249 309 -302 470 -55 171 -40 333 39 418 30 32
37 34 77 30 70 -8 134 -47 222 -136 105 -105 172 -194 229 -303 49 -94 57
-104 97 -114 44 -11 94 45 183 207 107 195 157 269 231 343 110 110 283 172
369 133z"/>
<path d="M4455 4230 c-266 -24 -551 -95 -845 -211 -142 -56 -449 -213 -560
-286 -314 -208 -559 -465 -729 -765 -69 -123 -221 -196 -584 -281 -120 -29
-153 -45 -168 -84 -21 -57 29 -113 157 -176 215 -106 447 -159 714 -162 113
-1 173 -6 189 -15 45 -24 123 -104 266 -275 154 -184 328 -361 440 -448 250
-194 542 -327 863 -393 109 -23 153 -27 317 -28 207 -1 300 9 492 55 705 165
1222 708 1313 1376 16 116 8 378 -15 483 -39 181 -142 413 -247 555 -76 103
-270 291 -368 357 -225 150 -464 242 -736 283 -126 19 -370 26 -499 15z m545
-203 c148 -28 261 -66 396 -132 335 -163 567 -430 680 -778 167 -517 5 -1086
-406 -1431 -315 -264 -748 -407 -1190 -393 -372 12 -677 122 -1001 363 -140
104 -299 266 -521 529 -101 121 -202 235 -223 254 -38 33 -39 33 -104 25 -117
-15 -387 -9 -486 10 -102 20 -179 50 -173 68 2 6 35 22 72 34 99 34 263 115
322 160 66 50 119 114 135 162 43 133 185 307 394 482 414 345 942 576 1503
655 130 19 485 14 602 -8z"/>
<path d="M3917 3305 c-87 -33 -165 -113 -206 -212 -33 -79 -41 -234 -16 -336
74 -311 439 -700 727 -773 106 -27 174 -4 409 139 343 208 569 446 651 682 71
207 15 383 -147 457 -66 30 -221 32 -305 4 -154 -53 -285 -139 -429 -284 -63
-64 -96 -91 -100 -81 -2 8 -22 47 -43 88 -75 142 -170 244 -277 297 -68 34
-201 43 -264 19z m220 -197 c91 -42 153 -149 210 -361 39 -145 59 -180 107
-189 29 -6 75 12 97 38 9 11 32 49 52 86 68 122 187 252 288 313 91 56 211 96
290 97 79 2 113 -15 135 -68 30 -72 -22 -219 -126 -355 -141 -187 -467 -434
-659 -499 -81 -28 -72 -31 -203 63 -171 123 -321 277 -396 409 -124 218 -90
440 76 488 35 10 76 3 129 -22z"/>
</g>
</svg>
